HIERARCHY
ROOT Hips
{
  OFFSET 90.7885 88.945 -76.2838
  CHANNELS 6 Xposition Yposition Zposition Zrotation Xrotation Yrotation
  JOINT LeftUpLeg
  {
    OFFSET 8.64259 1.95398 -2.38835
    CHANNELS 3 Zrotation Xrotation Yrotation
    JOINT LeftLeg
    {
      OFFSET 43.7702 0 0
      CHANNELS 3 Zrotation Xrotation Yrotation
      JOINT LeftFoot
      {
        OFFSET 40.6238 0 0
        CHANNELS 3 Zrotation Xrotation Yrotation
        JOINT LeftToeBase
        {
          OFFSET 12.7242 0 0
          CHANNELS 3 Zrotation Xrotation Yrotation
          End Site
          {
            OFFSET 0 0 0
          }
        }
      }
    }
  }
  JOINT RightUpLeg
  {
    OFFSET -8.2249 1.95398 -2.59336
    CHANNELS 3 Zrotation Xrotation Yrotation
    JOINT RightLeg
    {
      OFFSET 43.5653 0 0
      CHANNELS 3 Zrotation Xrotation Yrotation
      JOINT RightFoot
      {
        OFFSET 40.6238 0 0
        CHANNELS 3 Zrotation Xrotation Yrotation
        JOINT RightToeBase
        {
          OFFSET 12.7242 0 0
          CHANNELS 3 Zrotation Xrotation Yrotation
          End Site
          {
            OFFSET 0 0 0
          }
        }
      }
    }
  }
  JOINT Spine
  {
    OFFSET 0.165834 0.87714 6.61349
    CHANNELS 3 Zrotation Xrotation Yrotation
    JOINT Spine1
    {
      OFFSET 7.38963 1.71661e-005 0
      CHANNELS 3 Zrotation Xrotation Yrotation
      JOINT Spine2
      {
        OFFSET 11.9445 1.14441e-005 0
        CHANNELS 3 Zrotation Xrotation Yrotation
        JOINT Spine3
        {
          OFFSET 14.7254 4.19617e-005 0
          CHANNELS 3 Zrotation Xrotation Yrotation
          JOINT Spine4
          {
            OFFSET 10.9679 0 0
            CHANNELS 3 Zrotation Xrotation Yrotation
            JOINT RightShoulder
            {
              OFFSET 2.46616 -1.6653 3.69651
              CHANNELS 3 Zrotation Xrotation Yrotation
              JOINT RightArm
              {
                OFFSET 13.0012 0 0
                CHANNELS 3 Zrotation Xrotation Yrotation
                JOINT RightForeArm
                {
                  OFFSET 28.7848 1.52588e-005 0
                  CHANNELS 3 Zrotation Xrotation Yrotation
                  JOINT RightHand
                  {
                    OFFSET 26.5688 1.52588e-005 0
                    CHANNELS 3 Zrotation Xrotation Yrotation
                    End Site
                    {
                      OFFSET 0 0 0
                    }
                  }
                }
              }
            }
            JOINT LeftShoulder
            {
              OFFSET 2.38034 -1.29275 -3.7523
              CHANNELS 3 Zrotation Xrotation Yrotation
              JOINT LeftArm
              {
                OFFSET 16.3182 6.10352e-005 0
                CHANNELS 3 Zrotation Xrotation Yrotation
                JOINT LeftForeArm
                {
                  OFFSET 27.0901 0 0
                  CHANNELS 3 Zrotation Xrotation Yrotation
                  JOINT LeftHand
                  {
                    OFFSET 24.5451 1.52588e-005 0
                    CHANNELS 3 Zrotation Xrotation Yrotation
                    End Site
                    {
                      OFFSET 0 0 0
                    }
                  }
                }
              }
            }
            JOINT Neck
            {
              OFFSET 5.0226 -0.0266342 0
              CHANNELS 3 Zrotation Xrotation Yrotation
              JOINT Head
              {
                OFFSET 6.69363 2.86102e-005 0
                CHANNELS 3 Zrotation Xrotation Yrotation
                End Site
                {
                  OFFSET 0 0 0
                }
              }
            }
          }
        }
      }
    }
  }
}
MOTION
Frames:	10
Frame Time:	0.0416667
-99.0499 89.9082 70.683 -91.2765 -50.7142 -78.0973 -142.634 -46.4338 -178.599 -7.68419 6.0176 -0.15669 79.2943 -42.909 81.5171 121.887 -19.1412 -43.9727 174.883 31.5383 105.923 -39.3329 -9.61727 3.09396 67.4884 -4.13037 -1.9276 23.7966 -1.84776 4.95996 -1.2132 7.76466 -92.112 11.2708 -3.3973 -3.87049 -0.401004 -3.56423 -3.71737 -22.906 -2.07849 -4.7111 -2.89336 -2.07848 -4.7111 89.7242 -33.8829 -105.871 32.628 -1.86981 4.11671 7.05166 -15.9347 -1.4017 -19.6005 -0.370896 -7.7708 -91.11 -55.4862 78.2815 -31.2635 -10.7718 -21.7119 28.2311 3.45775 -68.5108 7.26664 -0.257544 -6.37405 6.69575 0.732004 -11.4883 -7.02185 2.85578 2.91592 
-97.9091 87.6746 76.6307 -94.9406 -49.6453 -83.3079 -144.852 -45.4824 176.652 -19.0717 37.5298 0.81809 53.607 -64.0445 67.82 122.428 -19.4789 -44.2032 175.001 33.0479 100.839 -51.2507 -13.5375 2.69495 73.6728 -5.08663 -4.14141 19.0844 -2.29338 6.28394 -0.657947 7.9407 -91.7377 10.9512 -2.11404 -3.25663 -0.721864 -2.25523 -3.16055 -23.2287 -1.03833 -3.74077 -3.21606 -1.03834 -3.74078 89.0074 -33.5144 -107.348 34.182 -2.87758 2.1815 7.21924 -14.6355 -2.7148 -19.7508 -0.310797 -7.71071 -91.6956 -56.3423 77.6478 -23.3625 3.27583 -16.17 13.5989 2.1377 -37.1524 0.330112 -0.127606 -5.94176 10.2243 1.4736 -4.22667 -7.27314 2.29449 2.4073 
-94.8825 87.2517 80.6481 -96.1036 -49.995 -85.605 -155.791 -37.3866 167.881 -47.0836 60.7921 8.90281 12.6176 -65.7393 19.3667 122.997 -19.4959 -43.2287 176.27 32.8057 95.3256 -53.5829 -14.8871 2.47988 76.105 -3.83694 -3.43015 17.931 -2.25122 6.28693 -0.0332577 8.05979 -91.4178 10.7377 -0.719949 -2.75509 -0.935828 -0.840441 -2.72079 -23.4477 0.141009 -2.84404 -3.43508 0.141012 -2.84405 89.4253 -30.1472 -107.835 36.6928 -4.85307 -2.13147 7.51822 -11.0203 -4.40087 -24.9752 -0.338519 -6.09441 -90.8137 -55.7688 78.7586 -19.0598 4.66019 -18.1251 16.4386 20.4172 -20.107 6.30216 0.0504731 -2.4496 10.9881 1.93167 3.07444 -7.0287 1.09039 2.24783 
-95.5923 90.4727 85.5895 -98.5086 -50.5005 -93.0293 -156.716 -36.7245 162.616 -42.9021 52.6372 7.19332 5.40627 -58.3312 4.76101 122.171 -19.1548 -43.4897 177.93 25.98 87.5769 -49.3624 -16.6252 0.166768 74.5166 -1.03272 -2.77224 22.3679 -3.27592 8.0809 0.453234 8.15163 -90.6803 10.5779 0.590032 -1.39975 -1.09364 0.52786 -1.42436 -23.6258 0.983447 -1.15775 -3.61311 0.983443 -1.15776 90.9036 -27.4886 -105.892 38.2306 -2.79342 -5.77091 5.62347 -8.24913 -6.48692 -26.6754 -0.345189 -5.44083 -89.6755 -56.1494 80.4287 -19.843 -1.6304 -9.05773 15.7907 14.0094 -19.0863 5.46651 0.255596 0.659269 3.91033 1.22353 6.70666 -5.31846 -0.0698411 2.81939 
-100.62 96.4381 91.2354 -101.201 -47.7296 -100.853 -138.78 -46.363 167.633 -6.40228 38.9293 0.798945 -18.7808 -61.6722 -12.3323 123.538 -19.5341 -42.4051 178.602 18.7706 83.9027 -45.4267 -18.0963 -4.92545 61.8189 6.67531 1.42885 23.8872 -3.66615 8.79214 1.00753 8.26655 -89.707 10.3429 2.14145 0.395372 -1.32626 2.15677 0.300696 -23.8733 1.92358 1.0209 -3.86062 1.92359 1.0209 91.6343 -26.1922 -104.861 40.5599 -3.02112 -6.14198 4.60741 -7.76753 -11.0641 -30.1522 -0.267135 -5.48944 -88.9234 -54.1315 81.1228 -16.6854 0.657351 -0.212983 15.0831 13.6802 -20.9995 5.60536 0.42599 2.95154 -5.16913 0.126306 5.43151 -4.72058 -0.418219 1.3552 
-105.718 100.134 96.1281 -98.7084 -42.6861 -101.357 -133.336 -52.3144 163.409 -1.08276 40.674 0.0405706 -37.5978 -74.012 -31.3346 125.468 -20.1608 -41.3218 177.483 20.6128 83.1634 -49.1533 -16.9083 -4.95373 59.1112 6.70209 2.94763 21.8707 -2.43987 6.3614 1.55743 8.28128 -89.1311 10.2901 3.50041 1.42422 -1.37675 3.55969 1.26862 -23.9337 2.91055 2.41089 -3.92108 2.91055 2.41088 91.1081 -25.0116 -106.45 40.5666 -5.0981 -6.41701 3.50279 -11.8318 -14.7872 -28.5248 0.135536 -8.07576 -88.5257 -48.1688 80.5804 -19.0298 10.0407 7.82447 12.1242 10.962 -23.6961 3.4827 0.201712 1.33978 -6.71637 0.684057 5.36054 -4.41389 0.225184 1.01411 
-110.133 101.142 100.695 -96.1317 -39.2711 -98.4641 -129.743 -54.3701 161.603 -1.63336 41.3606 -0.00445466 -95.2713 -84.5403 -90.4796 127.334 -20.6268 -39.9379 174.443 23.4263 85.5099 -48.1174 -16.6702 -0.754574 56.4529 5.31777 5.79667 28.0818 -1.22646 3.04711 1.65893 8.21767 -89.2427 10.4215 3.65172 1.1833 -1.24471 3.70027 1.02124 -23.8077 3.12722 2.22686 -3.79503 3.12721 2.22685 90.1703 -25.4275 -108.28 37.3522 -7.06497 -8.63557 4.61535 -11.9212 -13.6643 -30.6024 0.116435 -7.84908 -88.3317 -51.1354 81.4372 -18.7408 17.0588 15.0171 9.41524 7.88653 -25.7174 2.0794 -0.043793 -3.05489 -5.62895 1.65003 9.47002 -3.3938 0.766904 1.49402 
-114.872 100.124 105.546 -96.2631 -36.2784 -97.9884 -125.898 -60.0766 161.619 -2.52695 33.0558 -0.17891 165.704 -75.2759 169.644 127.991 -20.6054 -38.9101 175.168 23.1691 88.7146 -46.395 -18.6292 -2.15869 58.282 3.94539 4.06335 24.9662 -1.10451 3.13774 1.57062 8.28221 -89.3422 10.2962 3.42997 1.01074 -1.37055 3.47113 0.858632 -23.9314 2.96756 1.99554 -3.91872 2.96757 1.99554 90.39 -26.1391 -107.508 36.082 -8.60481 -10.6019 5.14787 -10.7659 -13.9179 -30.9759 -0.361345 -5.65909 -87.1499 -50.9705 83.1625 -24.5899 13.8291 21.6139 11.3564 9.16081 -27.9965 -2.03399 -0.0836099 -2.32482 -4.65172 3.21562 11.2477 -3.96303 2.04607 2.19434 
-119.461 96.7347 110.735 -95.6674 -33.2857 -98.1318 -124.842 -68.0548 158.649 -4.02264 18.114 -0.5813 154.697 -56.7876 155.542 127.973 -20.3732 -38.2102 174.027 24.0138 89.0495 -47.1281 -15.2985 -1.93158 55.6085 3.66156 -0.306504 28.6647 -4.46165 10.7279 1.46562 8.28503 -89.3961 10.2924 3.19612 0.924223 -1.37485 3.23372 0.782513 -23.9325 2.77054 1.84263 -3.91982 2.77053 1.84262 89.6051 -26.4578 -109.013 35.8398 -7.2164 -9.57315 4.48149 -11.1837 -14.8708 -28.7219 0.0656501 -7.6036 -86.8928 -51.1483 83.5729 -29.9091 11.875 24.0817 9.43281 6.47269 -25.067 -4.16385 -0.11545 -3.07688 -4.12255 4.72537 13.4374 -3.53457 3.28261 1.70566 
-123.398 90.6861 115.862 -95.9677 -30.0656 -98.9414 -122.524 -76.884 156.729 -5.95212 8.46519 -1.04304 158.338 -29.1021 154.693 127.372 -20.1066 -38.2338 172.792 21.2526 88.2443 -57.3302 -14.0483 -4.28192 79.6753 -9.07713 -2.90094 32.2941 -4.1042 9.70769 1.47414 8.38837 -89.5151 10.0894 3.1585 0.698882 -1.57783 3.18618 0.559058 -24.137 2.80236 1.61647 -4.12433 2.80236 1.61647 89.2315 -27.5015 -109.328 34.79 -6.18827 -8.54197 3.46321 -14.8325 -15.2645 -27.7959 0.115634 -8.79369 -87.1672 -54.3371 83.6706 -31.0034 12.0821 23.7918 6.15288 0.117567 -23.0004 -7.26715 -0.0633398 -5.00616 -2.47891 5.92216 15.4984 -1.36719 4.05521 2.50592 
